<?xml version="1.0" standalone="no"?>
<!DOCTYPE svg PUBLIC "-//W3C//DTD SVG 20010904//EN"
 "http://www.w3.org/TR/2001/REC-SVG-20010904/DTD/svg10.dtd">
<svg version="1.0" xmlns="http://www.w3.org/2000/svg"
 width="276.000000pt" height="276.000000pt" viewBox="0 0 276.000000 276.000000"
 preserveAspectRatio="xMidYMid meet">
<metadata>
Created by potrace 1.14, written by Peter Selinger 2001-2017
</metadata>
<g transform="translate(0.000000,276.000000) scale(0.100000,-0.100000)"
fill="#000000" stroke="none">
<path d="M390 2572 c-56 -5 -137 -25 -171 -42 -110 -56 -192 -177 -207 -305
-4 -38 -7 -376 -7 -750 1 -742 1 -742 60 -835 58 -92 165 -161 275 -178 38 -6
406 -10 885 -10 l821 -1 104 -49 c58 -27 181 -86 274 -131 179 -87 223 -98
271 -67 14 9 33 28 42 43 17 25 18 88 18 981 0 1002 -2 1047 -44 1131 -50 97
-152 176 -261 202 -43 10 -262 13 -1045 13 -545 1 -1001 0 -1015 -2z m2043
-271 c75 -46 71 12 72 -926 1 -462 0 -845 -3 -851 -2 -8 -70 20 -177 71 -96
46 -193 89 -217 96 -31 8 -282 12 -899 13 l-856 1 -37 28 c-20 16 -42 41 -48
55 -8 19 -11 243 -12 722 -1 567 2 701 13 728 17 42 64 75 115 82 23 3 484 5
1026 5 l985 0 38 -24z"/>
<path d="M763 1620 c-71 -43 -82 -136 -24 -194 28 -27 38 -31 87 -31 51 0 58
3 90 37 54 60 44 138 -23 184 -40 27 -90 28 -130 4z"/>
<path d="M1345 1632 c-80 -27 -114 -119 -68 -188 68 -104 236 -46 227 78 -6
82 -83 134 -159 110z"/>
<path d="M1883 1625 c-39 -17 -73 -68 -73 -111 0 -37 36 -94 70 -111 89 -45
191 27 177 126 -6 49 -28 78 -74 97 -40 17 -59 17 -100 -1z"/>
</g>
</svg>
