<svg width="70" height="70" viewBox="0 0 70 70" fill="none" xmlns="http://www.w3.org/2000/svg">
<path d="M26.9792 64.1667L25.8125 54.8333C25.1806 54.5903 24.5851 54.2986 24.026 53.9583C23.467 53.6181 22.9201 53.2535 22.3854 52.8646L13.7083 56.5104L5.6875 42.6563L13.1979 36.9688C13.1493 36.6285 13.125 36.3004 13.125 35.9844V34.0156C13.125 33.6997 13.1493 33.3715 13.1979 33.0313L5.6875 27.3438L13.7083 13.4896L22.3854 17.1354C22.9201 16.7465 23.4792 16.382 24.0625 16.0417C24.6458 15.7014 25.2292 15.4097 25.8125 15.1667L26.9792 5.83334H43.0208L44.1875 15.1667C44.8194 15.4097 45.4149 15.7014 45.974 16.0417C46.533 16.382 47.0799 16.7465 47.6146 17.1354L56.2917 13.4896L64.3125 27.3438L56.8021 33.0313C56.8507 33.3715 56.875 33.6997 56.875 34.0156V35.9844C56.875 36.3004 56.8264 36.6285 56.7292 36.9688L64.2396 42.6563L56.2188 56.5104L47.6146 52.8646C47.0799 53.2535 46.5208 53.6181 45.9375 53.9583C45.3542 54.2986 44.7708 54.5903 44.1875 54.8333L43.0208 64.1667H26.9792ZM32.0833 58.3333H37.8438L38.8646 50.6042C40.3715 50.2153 41.7691 49.6441 43.0573 48.8906C44.3455 48.1372 45.5243 47.2257 46.5938 46.1563L53.8125 49.1458L56.6562 44.1875L50.3854 39.4479C50.6285 38.7674 50.7986 38.0504 50.8958 37.2969C50.9931 36.5434 51.0417 35.7778 51.0417 35C51.0417 34.2222 50.9931 33.4566 50.8958 32.7031C50.7986 31.9497 50.6285 31.2326 50.3854 30.5521L56.6562 25.8125L53.8125 20.8542L46.5938 23.9167C45.5243 22.7986 44.3455 21.8629 43.0573 21.1094C41.7691 20.3559 40.3715 19.7847 38.8646 19.3958L37.9167 11.6667H32.1562L31.1354 19.3958C29.6285 19.7847 28.2309 20.3559 26.9427 21.1094C25.6545 21.8629 24.4757 22.7743 23.4062 23.8438L16.1875 20.8542L13.3437 25.8125L19.6146 30.4792C19.3715 31.2083 19.2014 31.9375 19.1042 32.6667C19.0069 33.3958 18.9583 34.1736 18.9583 35C18.9583 35.7778 19.0069 36.5313 19.1042 37.2604C19.2014 37.9896 19.3715 38.7188 19.6146 39.4479L13.3437 44.1875L16.1875 49.1458L23.4062 46.0833C24.4757 47.2014 25.6545 48.1372 26.9427 48.8906C28.2309 49.6441 29.6285 50.2153 31.1354 50.6042L32.0833 58.3333ZM35.1458 45.2083C37.9653 45.2083 40.3715 44.2118 42.3646 42.2188C44.3576 40.2257 45.3542 37.8195 45.3542 35C45.3542 32.1806 44.3576 29.7743 42.3646 27.7813C40.3715 25.7882 37.9653 24.7917 35.1458 24.7917C32.2778 24.7917 29.8594 25.7882 27.8906 27.7813C25.9219 29.7743 24.9375 32.1806 24.9375 35C24.9375 37.8195 25.9219 40.2257 27.8906 42.2188C29.8594 44.2118 32.2778 45.2083 35.1458 45.2083Z" fill="black"/>
</svg>
