<svg width="16" height="16" viewBox="0 0 16 16" fill="none" xmlns="http://www.w3.org/2000/svg">
<g id="thumb_up_FILL1_wght400_GRAD0_opsz24 2">
<path id="Vector" d="M4.00008 1.99999L10.6667 1.99999L10.6667 10.6667L6.00008 15.3333L5.16675 14.5C5.08897 14.4222 5.02508 14.3167 4.97508 14.1833C4.92508 14.05 4.90008 13.9222 4.90008 13.8L4.90008 13.5667L5.63341 10.6667L2.00008 10.6667C1.64453 10.6667 1.33342 10.5333 1.06675 10.2667C0.800082 10 0.666749 9.68888 0.666748 9.33333L0.666748 8C0.666748 7.92222 0.675082 7.83888 0.691748 7.75C0.708415 7.66111 0.733415 7.57777 0.766748 7.5L2.76675 2.79999C2.86675 2.57777 3.03341 2.38888 3.26675 2.23333C3.50008 2.07777 3.74453 1.99999 4.00008 1.99999ZM12.0001 10.6667L12.0001 1.99999L14.6667 1.99999L14.6667 10.6667L12.0001 10.6667Z" fill="#6F0808"/>
</g>
</svg>
