<svg width="15" height="15" viewBox="0 0 15 15" fill="none" xmlns="http://www.w3.org/2000/svg">
<g id="thumb_up_FILL1_wght400_GRAD0_opsz24 1">
<path id="Vector" d="M11.25 13.125H5V5L9.375 0.625L10.1562 1.40625C10.2292 1.47917 10.2891 1.57812 10.3359 1.70312C10.3828 1.82812 10.4062 1.94792 10.4062 2.0625V2.28125L9.71875 5H13.125C13.4583 5 13.75 5.125 14 5.375C14.25 5.625 14.375 5.91667 14.375 6.25V7.5C14.375 7.57292 14.3672 7.65104 14.3516 7.73438C14.3359 7.81771 14.3125 7.89583 14.2812 7.96875L12.4062 12.375C12.3125 12.5833 12.1562 12.7604 11.9375 12.9062C11.7188 13.0521 11.4896 13.125 11.25 13.125ZM3.75 5V13.125H1.25V5H3.75Z" fill="#00482E"/>
</g>
</svg>
